Coordinates
nRows=17
nColumns=24

# SIMM Motion File Header:
name Coordinates
datacolumns 24
datarows 17
otherdata 1
range 0.85567000000000004000 0.87167000000000006000

Units are S.I. units (second, meters, Newtons, ...)
Angles are in degrees.

endheader
time	pelvis_tx	pelvis_ty	pelvis_tz	pelvis_tilt	pelvis_list	pelvis_rotation	hip_flexion_r	hip_adduction_r	hip_rotation_r	knee_angle_r	ankle_angle_r	subtalar_angle_r	mtp_angle_r	hip_flexion_l	hip_adduction_l	hip_rotation_l	knee_angle_l	ankle_angle_l	subtalar_angle_l	mtp_angle_l	lumbar_extension	lumbar_bending	lumbar_rotation
      0.85567000000000004000	      1.14370721421932230000	      0.87610765637859489000	     -0.18547854733590563000	     -0.70101844769212784000	      0.17371393175898989000	     -4.79993404222346510000	    -14.00765040941318400000	      1.30560241913631290000	     -3.73562644840551040000	    -14.38535154894665300000	     12.43864744627659400000	     -0.00000000000039352844	      0.00000000000005158134	     22.82338410489934300000	      0.42480570456925149000	      4.59876417924744190000	    -15.35161733001022800000	     -2.98967475759574430000	     -0.00000000000001113695	     -0.00000000000000343680	     -8.72256998544386340000	      0.06067324393047032700	      9.06839566790180560000
      0.85667000000000004000	      1.14464401377705700000	      0.87612759995523426000	     -0.18560309259537577000	     -0.72625784198861798000	      0.19303341271922997000	     -4.79715941179141050000	    -14.00889181749162700000	      1.26269697922864180000	     -3.73892788394939360000	    -14.43971265470495300000	     12.35806760000731300000	     -0.00000000000039584273	      0.00000000000005309853	     22.82864267335074300000	      0.46338352403782940000	      4.60291155571960520000	    -15.42129229203872500000	     -3.00349297061898480000	     -0.00000000000001117781	     -0.00000000000000349311	     -8.67346827691717870000	      0.04239406590409380800	      9.10359396995676210000
      0.85767000000000004000	      1.14558286605687740000	      0.87614799918024067000	     -0.18572841495943343000	     -0.75131242154967171000	      0.21220269221292290000	     -4.79415540732789850000	    -14.01003443859720600000	      1.21979731730632320000	     -3.74181207008065450000	    -14.49457270375974500000	     12.27594461720203100000	     -0.00000000000039812474	      0.00000000000005464356	     22.83312680947877400000	      0.50194852213002816000	      4.60665581264611830000	    -15.49016728525348600000	     -3.01581597382545130000	     -0.00000000000001122083	     -0.00000000000000354572	     -8.62424154850441300000	      0.02436974490475464100	      9.13876978658630710000
      0.85867000000000004000	      1.14652372676125780000	      0.87616887329120730000	     -0.18585450094620884000	     -0.77617125033832479000	      0.23121601532431627000	     -4.79092506863399500000	    -14.01106709817706400000	      1.17690641752231850000	     -3.74430346695664750000	    -14.54996447204983100000	     12.19225593225606700000	     -0.00000000000040039003	      0.00000000000005611315	     22.83682540661604000000	      0.54049228236257729000	      4.60998246359283480000	    -15.55824718942423800000	     -3.02662639468271120000	     -0.00000000000001127245	     -0.00000000000000359853	     -8.57490842031919880000	      0.00660466220510254160	      9.17391408322919940000
      0.85967000000000005000	      1.14746654977616980000	      0.87619024342364360000	     -0.18598133624972812000	     -0.80082360242763784000	      0.25006779753149205000	     -4.78747137454503320000	    -14.01197781447835100000	      1.13402710745173050000	     -3.74642754194927670000	    -14.60592154518853800000	     12.10697961947373200000	     -0.00000000000040266984	      0.00000000000005763852	     22.83972811448766600000	      0.57900643192939505000	      4.61287709408313520000	    -15.62553784794758000000	     -3.03590768132691570000	     -0.00000000000001132683	     -0.00000000000000365080	     -8.52548749595333530000	     -0.01089712119817556700	      9.20901763474824260000
      0.86067000000000005000	      1.14841128719554300000	      0.87621213261299946000	     -0.18610890574543815000	     -0.82525897313342456000	      0.26875263211988493000	     -4.78379724227330620000	    -14.01275380366834300000	      1.09116205551039650000	     -3.74821072721198560000	    -14.66247829478917300000	     12.02009445271762000000	     -0.00000000000040499314	      0.00000000000005925273	     22.84182534623557000000	      0.61748265048824180000	      4.61532537733113200000	    -15.69204603934334100000	     -3.04364413834861170000	     -0.00000000000001138582	     -0.00000000000000370052	     -8.47599734367834930000	     -0.02813187030775132400	      9.24407103140749880000
      0.86167000000000005000	      1.14935788936666740000	      0.87623456574707392000	     -0.18623719351203852000	     -0.84946708782593172000	      0.28726529010457252000	     -4.77990553269221770000	    -14.01338149115864300000	      1.04831377884768000000	     -3.74968036431157260000	    -14.71966984849279200000	     11.93157995665856300000	     -0.00000000000040733724	      0.00000000000006086513	     22.84310827516004100000	      0.65591266265145343000	      4.61731310206393710000	    -15.75777943845347200000	     -3.04982093281110610000	     -0.00000000000001144321	     -0.00000000000000374844	     -8.42645647924061870000	     -0.04509617189420341000	      9.27906469317952620000
      0.86267000000000005000	      1.15030630493747890000	      0.87625756950736355000	     -0.18636618286665196000	     -0.87343791103683110000	      0.30560072443797553000	     -4.77579905298273570000	    -14.01384652257142000000	      1.00548464767824890000	     -3.75086465232103580000	    -14.77753206096418900000	     11.84141646794424600000	     -0.00000000000040970624	      0.00000000000006250362	     22.84356883397461500000	      0.69428823761991743000	      4.61882619341035380000	    -15.82274658086553400000	     -3.05442409405984620000	     -0.00000000000001149681	     -0.00000000000000379680	     -8.37688334824420980000	     -0.06178693380211344700	      9.31398888108152610000
      0.86367000000000005000	      1.15125648090338780000	      0.87628117231025571000	     -0.18649585640220667000	     -0.89716165574911455000	      0.32375407544034257000	     -4.77148055838959450000	    -14.01413377445922500000	      0.96267688833491427000	     -3.75179259725759630000	    -14.83610148535957900000	     11.74958519769741500000	     -0.00000000000041212835	      0.00000000000006416917	     22.84319971499165500000	      0.73260119104821231000	      4.61985073169694080000	    -15.88695682835118100000	     -3.05744052232749300000	     -0.00000000000001155259	     -0.00000000000000383636	     -8.32729630842096570000	     -0.07820138550014695000	      9.34883370742124240000
      0.86467000000000005000	      1.15220836265417930000	      0.87630540424831305000	     -0.18662619602487085000	     -0.92062879270088971000	      0.34172067622212904000	     -4.76695275396997250000	    -14.01422736514992300000	      0.91989258618955516000	     -3.75249396152781320000	    -14.89541534484299500000	     11.65606829400317000000	     -0.00000000000041452619	      0.00000000000006579347	     22.84199437018183300000	      0.77084338705681121000	      4.62037297119297290000	    -15.95042033434842400000	     -3.05885799755342490000	     -0.00000000000001160909	     -0.00000000000000387875	     -8.27771361197397580000	     -0.09433707871767232900	      9.38358914599656120000
      0.86567000000000005000	      1.15316189402101600000	      0.87633029703165788000	     -0.18675718299152474000	     -0.94383005970295253000	      0.35949605808840607000	     -4.76221829634191620000	    -14.01411066573709600000	      0.87713368844604767000	     -3.75299921336930620000	    -14.95551150415375300000	     11.56084890437647800000	     -0.00000000000041692184	      0.00000000000006742846	     22.83994701108112900000	      0.80900674037976739000	      4.62037935882065300000	    -16.01314800948780700000	     -3.05866518834571680000	     -0.00000000000001165988	     -0.00000000000000392665	     -8.22815338800632110000	     -0.11019188816095930000	      9.41824504225673560000
      0.86667000000000005000	      1.15411701732353690000	      0.87635588392950858000	     -0.18688879794733421000	     -0.96675647097813833000	      0.37707595599134347000	     -4.75727979538407380000	    -14.01376631123446800000	      0.83440200674765752000	     -3.75333947632159730000	    -15.01642844120153700000	     11.46391123847085100000	     -0.00000000000041932893	      0.00000000000006902601	     22.83705260857594900000	      0.84708321871542624000	      4.61985655258466910000	    -16.07515148712325400000	     -3.05685166475592760000	     -0.00000000000001170749	     -0.00000000000000397887	     -8.17863362503577030000	     -0.12576401238122670000	      9.45279112337932400000
      0.86767000000000005000	      1.15507367341478930000	      0.87638219971049769000	     -0.18702102097170920000	     -0.98939932758315907000	      0.39445631940714454000	     -4.75213981120041760000	    -14.01317621039021000000	      0.79169921528082388000	     -3.75354648377633770000	    -15.07820521953622300000	     11.36524062766035200000	     -0.00000000000042166911	      0.00000000000007048573	     22.83330689855180400000	      0.88506485346878960000	      4.61879142965452600000	    -16.13644309529577500000	     -3.05340799353045300000	     -0.00000000000001175262	     -0.00000000000000402572	     -8.12917215248735840000	     -0.14105198010403136000	      9.48721700323952710000
      0.86867000000000005000	      1.15603180174032880000	      0.87640928054815059000	     -0.18715383163401367000	     -1.01175022608677170000	      0.41163332264810304000	     -4.74680085151546030000	    -14.01232155933819000000	      0.74902685047516759000	     -3.75365252965182660000	    -15.14088145721889200000	     11.26482357560889500000	     -0.00000000000042393563	      0.00000000000007183982	     22.82870638430604900000	      0.92294375017011765000	      4.61717109573254090000	    -16.19703582805666600000	     -3.04832578814462880000	     -0.00000000000001178832	     -0.00000000000000408295	     -8.07978662361162670000	     -0.15605465549057818000	      9.52151219028040960000
      0.86967000000000005000	      1.15699134043586980000	      0.87643716383782955000	     -0.18728720905227814000	     -1.03380106174900920000	      0.42860336116532910000	     -4.74126538172317340000	    -14.01118286504737600000	      0.70638632468980422000	     -3.75369039965210090000	    -15.20449728665641100000	     11.16264781678863500000	     -0.00000000000042616948	      0.00000000000007312914	     22.82324831823469700000	      0.96071207521919699000	      4.61498291613991270000	    -16.25694329441119400000	     -3.04159761141668070000	     -0.00000000000001181722	     -0.00000000000000414421	     -8.03049450338697390000	     -0.17077122815306198000	      9.55566611321797940000
      0.87067000000000005000	      1.15795222643489070000	      0.87646588797840286000	     -0.18742113196388099000	     -1.05554403178668270000	      0.44536305010790661000	     -4.73553583319402720000	    -14.00973996883610800000	      0.66377893884005224000	     -3.75369330368789060000	    -15.26909331384382900000	     11.05870237648744800000	     -0.00000000000042840862	      0.00000000000007443837	     22.81693068493834900000	      0.99836204468559242000	      4.61221454113098870000	    -16.31617966784923400000	     -3.03321694083992370000	     -0.00000000000001185311	     -0.00000000000000420612	     -7.98131305631360280000	     -0.18520120489893505000	      9.58966814556539760000
      0.87167000000000006000	      1.15891439557394050000	      0.87649549215255673000	     -0.18755557880398971000	     -1.07697163991442510000	      0.46190922779288313000	     -4.72961460718928260000	    -14.00797206793440700000	      0.62120589087542410000	     -3.75369481371521420000	    -15.33471057940228400000	     10.95297762502013600000	     -0.00000000000043064948	      0.00000000000007571215	     22.80975219025400600000	      1.03588592102853470000	      4.60885392350161640000	    -16.37475964332457300000	     -3.02317817536324630000	     -0.00000000000001188507	     -0.00000000000000427142	     -7.93225933308257320000	     -0.19934440637842726000	      9.62350762506268080000
